<mxfile host="app.diagrams.net" agent="Mozilla/5.0 (Windows NT 10.0; Win64; x64) AppleWebKit/537.36 (KHTML, like Gecko) Chrome/132.0.0.0 Safari/537.36" version="26.0.11">
  <diagram id="C5RBs43oDa-KdzZeNtuy" name="Page-1">
    <mxGraphModel dx="1167" dy="580" grid="1" gridSize="10" guides="1" tooltips="1" connect="1" arrows="1" fold="1" page="1" pageScale="1" pageWidth="827" pageHeight="1169" math="0" shadow="0">
      <root>
        <mxCell id="WIyWlLk6GJQsqaUBKTNV-0" />
        <mxCell id="WIyWlLk6GJQsqaUBKTNV-1" parent="WIyWlLk6GJQsqaUBKTNV-0" />
        <mxCell id="7sFbTW-ODERo6YKJCFsh-11" value="" style="edgeStyle=orthogonalEdgeStyle;rounded=0;orthogonalLoop=1;jettySize=auto;html=1;" edge="1" parent="WIyWlLk6GJQsqaUBKTNV-1" source="7sFbTW-ODERo6YKJCFsh-0" target="7sFbTW-ODERo6YKJCFsh-2">
          <mxGeometry relative="1" as="geometry" />
        </mxCell>
        <mxCell id="7sFbTW-ODERo6YKJCFsh-0" value="Inicio" style="ellipse;whiteSpace=wrap;html=1;" vertex="1" parent="WIyWlLk6GJQsqaUBKTNV-1">
          <mxGeometry x="220" y="10" width="120" height="80" as="geometry" />
        </mxCell>
        <mxCell id="7sFbTW-ODERo6YKJCFsh-18" style="edgeStyle=orthogonalEdgeStyle;rounded=0;orthogonalLoop=1;jettySize=auto;html=1;exitX=0.5;exitY=1;exitDx=0;exitDy=0;entryX=0.5;entryY=0;entryDx=0;entryDy=0;" edge="1" parent="WIyWlLk6GJQsqaUBKTNV-1" source="7sFbTW-ODERo6YKJCFsh-1" target="7sFbTW-ODERo6YKJCFsh-3">
          <mxGeometry relative="1" as="geometry" />
        </mxCell>
        <mxCell id="7sFbTW-ODERo6YKJCFsh-1" value="Escribir &quot;Ingrese la nota de las actividades&quot;" style="shape=parallelogram;perimeter=parallelogramPerimeter;whiteSpace=wrap;html=1;fixedSize=1;" vertex="1" parent="WIyWlLk6GJQsqaUBKTNV-1">
          <mxGeometry x="220" y="210" width="120" height="60" as="geometry" />
        </mxCell>
        <mxCell id="7sFbTW-ODERo6YKJCFsh-15" value="" style="edgeStyle=orthogonalEdgeStyle;rounded=0;orthogonalLoop=1;jettySize=auto;html=1;" edge="1" parent="WIyWlLk6GJQsqaUBKTNV-1" source="7sFbTW-ODERo6YKJCFsh-2" target="7sFbTW-ODERo6YKJCFsh-1">
          <mxGeometry relative="1" as="geometry" />
        </mxCell>
        <mxCell id="7sFbTW-ODERo6YKJCFsh-2" value="notas = 10; suma = 0; i = 0;" style="rounded=0;whiteSpace=wrap;html=1;" vertex="1" parent="WIyWlLk6GJQsqaUBKTNV-1">
          <mxGeometry x="220" y="110" width="120" height="60" as="geometry" />
        </mxCell>
        <mxCell id="7sFbTW-ODERo6YKJCFsh-19" style="edgeStyle=orthogonalEdgeStyle;rounded=0;orthogonalLoop=1;jettySize=auto;html=1;exitX=0.5;exitY=1;exitDx=0;exitDy=0;" edge="1" parent="WIyWlLk6GJQsqaUBKTNV-1" source="7sFbTW-ODERo6YKJCFsh-3" target="7sFbTW-ODERo6YKJCFsh-12">
          <mxGeometry relative="1" as="geometry" />
        </mxCell>
        <mxCell id="7sFbTW-ODERo6YKJCFsh-40" value="" style="edgeStyle=orthogonalEdgeStyle;rounded=0;orthogonalLoop=1;jettySize=auto;html=1;entryX=0;entryY=0.5;entryDx=0;entryDy=0;" edge="1" parent="WIyWlLk6GJQsqaUBKTNV-1" source="7sFbTW-ODERo6YKJCFsh-3" target="7sFbTW-ODERo6YKJCFsh-7">
          <mxGeometry relative="1" as="geometry" />
        </mxCell>
        <mxCell id="7sFbTW-ODERo6YKJCFsh-3" value="i &amp;lt;= notas" style="rhombus;whiteSpace=wrap;html=1;" vertex="1" parent="WIyWlLk6GJQsqaUBKTNV-1">
          <mxGeometry x="240" y="290" width="80" height="80" as="geometry" />
        </mxCell>
        <mxCell id="7sFbTW-ODERo6YKJCFsh-21" style="edgeStyle=orthogonalEdgeStyle;rounded=0;orthogonalLoop=1;jettySize=auto;html=1;exitX=0.5;exitY=1;exitDx=0;exitDy=0;entryX=0.5;entryY=0;entryDx=0;entryDy=0;" edge="1" parent="WIyWlLk6GJQsqaUBKTNV-1" source="7sFbTW-ODERo6YKJCFsh-5" target="7sFbTW-ODERo6YKJCFsh-6">
          <mxGeometry relative="1" as="geometry" />
        </mxCell>
        <mxCell id="7sFbTW-ODERo6YKJCFsh-5" value="Leer notas(i)" style="rounded=0;whiteSpace=wrap;html=1;" vertex="1" parent="WIyWlLk6GJQsqaUBKTNV-1">
          <mxGeometry x="220" y="480" width="120" height="60" as="geometry" />
        </mxCell>
        <mxCell id="7sFbTW-ODERo6YKJCFsh-35" style="edgeStyle=orthogonalEdgeStyle;rounded=0;orthogonalLoop=1;jettySize=auto;html=1;exitX=0.5;exitY=1;exitDx=0;exitDy=0;entryX=0.5;entryY=0;entryDx=0;entryDy=0;" edge="1" parent="WIyWlLk6GJQsqaUBKTNV-1" source="7sFbTW-ODERo6YKJCFsh-6" target="7sFbTW-ODERo6YKJCFsh-34">
          <mxGeometry relative="1" as="geometry" />
        </mxCell>
        <mxCell id="7sFbTW-ODERo6YKJCFsh-6" value="suma = suma + notas(i)" style="rounded=0;whiteSpace=wrap;html=1;" vertex="1" parent="WIyWlLk6GJQsqaUBKTNV-1">
          <mxGeometry x="220" y="554.5" width="120" height="60" as="geometry" />
        </mxCell>
        <mxCell id="7sFbTW-ODERo6YKJCFsh-23" style="edgeStyle=orthogonalEdgeStyle;rounded=0;orthogonalLoop=1;jettySize=auto;html=1;exitX=0.5;exitY=1;exitDx=0;exitDy=0;" edge="1" parent="WIyWlLk6GJQsqaUBKTNV-1" source="7sFbTW-ODERo6YKJCFsh-7" target="7sFbTW-ODERo6YKJCFsh-8">
          <mxGeometry relative="1" as="geometry" />
        </mxCell>
        <mxCell id="7sFbTW-ODERo6YKJCFsh-25" style="edgeStyle=orthogonalEdgeStyle;rounded=0;orthogonalLoop=1;jettySize=auto;html=1;exitX=1;exitY=0.5;exitDx=0;exitDy=0;entryX=0;entryY=0.5;entryDx=0;entryDy=0;" edge="1" parent="WIyWlLk6GJQsqaUBKTNV-1" source="7sFbTW-ODERo6YKJCFsh-7" target="7sFbTW-ODERo6YKJCFsh-9">
          <mxGeometry relative="1" as="geometry" />
        </mxCell>
        <mxCell id="7sFbTW-ODERo6YKJCFsh-7" value="suma &amp;gt;= 65" style="rhombus;whiteSpace=wrap;html=1;" vertex="1" parent="WIyWlLk6GJQsqaUBKTNV-1">
          <mxGeometry x="434" y="290" width="80" height="80" as="geometry" />
        </mxCell>
        <mxCell id="7sFbTW-ODERo6YKJCFsh-38" value="" style="edgeStyle=orthogonalEdgeStyle;rounded=0;orthogonalLoop=1;jettySize=auto;html=1;" edge="1" parent="WIyWlLk6GJQsqaUBKTNV-1" source="7sFbTW-ODERo6YKJCFsh-8" target="7sFbTW-ODERo6YKJCFsh-10">
          <mxGeometry relative="1" as="geometry" />
        </mxCell>
        <mxCell id="7sFbTW-ODERo6YKJCFsh-8" value="Escribir &quot;Curso aprobado&quot;" style="shape=parallelogram;perimeter=parallelogramPerimeter;whiteSpace=wrap;html=1;fixedSize=1;" vertex="1" parent="WIyWlLk6GJQsqaUBKTNV-1">
          <mxGeometry x="414" y="430" width="120" height="60" as="geometry" />
        </mxCell>
        <mxCell id="7sFbTW-ODERo6YKJCFsh-39" style="edgeStyle=orthogonalEdgeStyle;rounded=0;orthogonalLoop=1;jettySize=auto;html=1;entryX=1.005;entryY=0.675;entryDx=0;entryDy=0;entryPerimeter=0;" edge="1" parent="WIyWlLk6GJQsqaUBKTNV-1" source="7sFbTW-ODERo6YKJCFsh-9" target="7sFbTW-ODERo6YKJCFsh-10">
          <mxGeometry relative="1" as="geometry">
            <mxPoint x="668" y="662.6666937934028" as="targetPoint" />
            <Array as="points">
              <mxPoint x="668" y="516" />
              <mxPoint x="669" y="584" />
            </Array>
          </mxGeometry>
        </mxCell>
        <mxCell id="7sFbTW-ODERo6YKJCFsh-9" value="Escribir &quot;Curso reprobado&quot;" style="shape=parallelogram;perimeter=parallelogramPerimeter;whiteSpace=wrap;html=1;fixedSize=1;" vertex="1" parent="WIyWlLk6GJQsqaUBKTNV-1">
          <mxGeometry x="608" y="300" width="120" height="60" as="geometry" />
        </mxCell>
        <mxCell id="7sFbTW-ODERo6YKJCFsh-10" value="Fin" style="ellipse;whiteSpace=wrap;html=1;" vertex="1" parent="WIyWlLk6GJQsqaUBKTNV-1">
          <mxGeometry x="414" y="530" width="120" height="80" as="geometry" />
        </mxCell>
        <mxCell id="7sFbTW-ODERo6YKJCFsh-20" style="edgeStyle=orthogonalEdgeStyle;rounded=0;orthogonalLoop=1;jettySize=auto;html=1;exitX=0.5;exitY=1;exitDx=0;exitDy=0;entryX=0.5;entryY=0;entryDx=0;entryDy=0;" edge="1" parent="WIyWlLk6GJQsqaUBKTNV-1" source="7sFbTW-ODERo6YKJCFsh-12" target="7sFbTW-ODERo6YKJCFsh-5">
          <mxGeometry relative="1" as="geometry" />
        </mxCell>
        <mxCell id="7sFbTW-ODERo6YKJCFsh-12" value="Escribr &quot;ingrese el valor de la nota&quot; , i , &quot;:&quot;" style="shape=parallelogram;perimeter=parallelogramPerimeter;whiteSpace=wrap;html=1;fixedSize=1;" vertex="1" parent="WIyWlLk6GJQsqaUBKTNV-1">
          <mxGeometry x="220" y="400" width="120" height="60" as="geometry" />
        </mxCell>
        <mxCell id="7sFbTW-ODERo6YKJCFsh-26" value="No" style="text;html=1;align=center;verticalAlign=middle;whiteSpace=wrap;rounded=0;" vertex="1" parent="WIyWlLk6GJQsqaUBKTNV-1">
          <mxGeometry x="534" y="300" width="60" height="30" as="geometry" />
        </mxCell>
        <mxCell id="7sFbTW-ODERo6YKJCFsh-27" value="No" style="text;html=1;align=center;verticalAlign=middle;whiteSpace=wrap;rounded=0;" vertex="1" parent="WIyWlLk6GJQsqaUBKTNV-1">
          <mxGeometry x="350" y="300" width="60" height="30" as="geometry" />
        </mxCell>
        <mxCell id="7sFbTW-ODERo6YKJCFsh-29" value="SI" style="text;html=1;align=center;verticalAlign=middle;whiteSpace=wrap;rounded=0;" vertex="1" parent="WIyWlLk6GJQsqaUBKTNV-1">
          <mxGeometry x="230" y="370" width="60" height="30" as="geometry" />
        </mxCell>
        <mxCell id="7sFbTW-ODERo6YKJCFsh-30" value="Si" style="text;html=1;align=center;verticalAlign=middle;whiteSpace=wrap;rounded=0;" vertex="1" parent="WIyWlLk6GJQsqaUBKTNV-1">
          <mxGeometry x="424" y="360" width="60" height="30" as="geometry" />
        </mxCell>
        <mxCell id="7sFbTW-ODERo6YKJCFsh-37" style="edgeStyle=orthogonalEdgeStyle;rounded=0;orthogonalLoop=1;jettySize=auto;html=1;entryX=0;entryY=0.5;entryDx=0;entryDy=0;" edge="1" parent="WIyWlLk6GJQsqaUBKTNV-1" source="7sFbTW-ODERo6YKJCFsh-34" target="7sFbTW-ODERo6YKJCFsh-3">
          <mxGeometry relative="1" as="geometry">
            <mxPoint x="100" y="290" as="targetPoint" />
            <Array as="points">
              <mxPoint x="70" y="660" />
              <mxPoint x="70" y="330" />
            </Array>
          </mxGeometry>
        </mxCell>
        <mxCell id="7sFbTW-ODERo6YKJCFsh-34" value="i = i +1" style="rounded=0;whiteSpace=wrap;html=1;" vertex="1" parent="WIyWlLk6GJQsqaUBKTNV-1">
          <mxGeometry x="220" y="630" width="120" height="60" as="geometry" />
        </mxCell>
      </root>
    </mxGraphModel>
  </diagram>
</mxfile>
